<!-- Generated by IcoMoon.io -->
<svg version="1.1" xmlns="http://www.w3.org/2000/svg" width="31" height="32" viewBox="0 0 31 32">
<title>date_range</title>
<path d="M24.32 6.144c1.408 0 2.56 1.152 2.56 2.56v17.92c0 1.408-1.152 2.56-2.56 2.56h-17.92c-1.421 0-2.56-1.152-2.56-2.56l0.013-17.92c0-1.408 1.126-2.56 2.547-2.56h1.28v-2.56h2.56v2.56h10.24v-2.56h2.56v2.56h1.28zM8.96 15.104h2.56v2.56h-2.56v-2.56zM16.64 15.104v2.56h-2.56v-2.56h2.56zM21.76 15.104h-2.56v2.56h2.56v-2.56zM6.4 26.624h17.92v-14.080h-17.92v14.080z"></path>
</svg>
