<svg aria-hidden="true" style="position: absolute; width: 0; height: 0; overflow: hidden;" version="1.1" xmlns="http://www.w3.org/2000/svg" xmlns:xlink="http://www.w3.org/1999/xlink">
<defs>
<symbol id="icon-date_range" viewBox="0 0 31 32">
<path d="M24.32 6.144c1.408 0 2.56 1.152 2.56 2.56v17.92c0 1.408-1.152 2.56-2.56 2.56h-17.92c-1.421 0-2.56-1.152-2.56-2.56l0.013-17.92c0-1.408 1.126-2.56 2.547-2.56h1.28v-2.56h2.56v2.56h10.24v-2.56h2.56v2.56h1.28zM8.96 15.104h2.56v2.56h-2.56v-2.56zM16.64 15.104v2.56h-2.56v-2.56h2.56zM21.76 15.104h-2.56v2.56h2.56v-2.56zM6.4 26.624h17.92v-14.080h-17.92v14.080z"></path>
</symbol>
<symbol id="icon-arrow-back" viewBox="0 0 32 32">
<path fill="#fff" style="fill: var(--color1, #fff)" d="M32 14h-24.34l11.18-11.18-2.84-2.82-16 16 16 16 2.82-2.82-11.16-11.18h24.34v-4z"></path>
</symbol>
<symbol id="icon-social-linkedin" viewBox="0 0 32 32">
<path fill="#fff" style="fill: var(--color1, #fff)" d="M27.372 26.551h-4.597v-7.128c0-1.7-0.031-3.888-2.391-3.888-2.394 0-2.761 1.852-2.761 3.764v7.252h-4.597v-14.659h4.413v2.003h0.062c0.442-0.748 1.080-1.363 1.847-1.78s1.634-0.62 2.508-0.588c4.659 0 5.518 3.035 5.518 6.982l-0.002 8.042zM7.839 9.887c-0.528 0-1.043-0.155-1.482-0.445s-0.781-0.703-0.983-1.185c-0.202-0.483-0.255-1.014-0.152-1.526s0.357-0.983 0.73-1.353c0.373-0.37 0.848-0.621 1.366-0.723s1.054-0.050 1.541 0.15c0.488 0.2 0.904 0.538 1.197 0.973s0.45 0.945 0.45 1.467c0 0.347-0.069 0.69-0.203 1.011s-0.33 0.612-0.578 0.857c-0.248 0.245-0.542 0.44-0.865 0.573s-0.671 0.201-1.021 0.201zM10.137 26.551h-4.602v-14.659h4.602v14.659zM29.664 0.377h-26.439c-0.6-0.007-1.178 0.223-1.608 0.638s-0.675 0.982-0.682 1.576v26.287c0.007 0.595 0.252 1.162 0.681 1.577s1.008 0.646 1.608 0.639h26.439c0.601 0.008 1.181-0.222 1.613-0.637s0.678-0.984 0.686-1.579v-26.289c-0.009-0.595-0.256-1.163-0.686-1.578s-1.011-0.644-1.612-0.636z"></path>
</symbol>
<symbol id="icon-share" viewBox="0 0 32 32">
<path fill="#272727" style="fill: var(--color2, #272727)" d="M4.129 0h23.742c2.28 0 4.129 1.849 4.129 4.129v23.742c0 2.28-1.849 4.129-4.129 4.129h-23.742c-2.28 0-4.129-1.849-4.129-4.129v-23.742c0-2.28 1.849-4.129 4.129-4.129z"></path>
<path fill="#fff" style="fill: var(--color1, #fff)" d="M22.71 20.728c-0.785 0-1.486 0.31-2.023 0.795l-7.36-4.284c0.052-0.237 0.093-0.475 0.093-0.723s-0.041-0.485-0.093-0.723l7.277-4.243c0.557 0.516 1.29 0.836 2.106 0.836 1.714 0 3.097-1.383 3.097-3.097s-1.383-3.097-3.097-3.097c-1.714 0-3.097 1.383-3.097 3.097 0 0.248 0.041 0.485 0.093 0.723l-7.277 4.243c-0.557-0.516-1.29-0.836-2.106-0.836-1.714 0-3.097 1.383-3.097 3.097s1.383 3.097 3.097 3.097c0.815 0 1.548-0.32 2.106-0.836l7.35 4.294c-0.052 0.217-0.083 0.444-0.083 0.671 0 1.662 1.352 3.014 3.014 3.014s3.014-1.352 3.014-3.014c0-1.662-1.352-3.014-3.014-3.014z"></path>
</symbol>
<symbol id="icon-transfer" viewBox="0 0 32 32">
<path fill="#272727" style="fill: var(--color2, #272727)" d="M4.129 0h23.742c2.28 0 4.129 1.849 4.129 4.129v23.742c0 2.28-1.849 4.129-4.129 4.129h-23.742c-2.28 0-4.129-1.849-4.129-4.129v-23.742c0-2.28 1.849-4.129 4.129-4.129z"></path>
<path fill="#fff" style="fill: var(--color1, #fff)" d="M9.613 21.375h8.844v-2.654h-8.844v-3.982l-5.034 5.309 5.034 5.309v-3.982zM27.289 12.085l-5.034-5.309v3.982h-8.844v2.654h8.844v3.982l5.034-5.309z"></path>
</symbol>
<symbol id="icon-user" viewBox="0 0 33 32">
<path d="M21.905 10.667c0 2.947-2.387 5.333-5.333 5.333s-5.333-2.387-5.333-5.333c0-2.947 2.387-5.333 5.333-5.333s5.333 2.387 5.333 5.333zM5.905 24c0-3.547 7.107-5.333 10.667-5.333s10.667 1.787 10.667 5.333v2.667h-21.333v-2.667z"></path>
</symbol>
<symbol id="icon-warning" viewBox="0 0 38 32">
<path d="M36.080 31.059l-17.255-29.804-17.255 29.804h34.51zM20.706 26.353h-3.765v-3.765h3.765v3.765zM16.941 20.706h3.765v-9.412h-3.765v9.412z"></path>
</symbol>
<symbol id="icon-up-down" viewBox="0 0 23 32">
<path d="M0.889 12.83c-0.183-0.21-0.274-0.436-0.274-0.676 0-0.26 0.091-0.486 0.274-0.676l10.082-10.547c0.202-0.21 0.442-0.316 0.721-0.316s0.519 0.105 0.721 0.316l10.082 10.547c0.183 0.18 0.274 0.406 0.274 0.676 0 0.26-0.091 0.486-0.274 0.676s-0.399 0.285-0.649 0.285c-0.231 0-0.447-0.095-0.649-0.285l-9.505-9.931-9.505 9.931c-0.183 0.19-0.399 0.285-0.649 0.285-0.231 0-0.447-0.095-0.649-0.285zM0.889 20.522c-0.183-0.21-0.274-0.436-0.274-0.676 0-0.26 0.091-0.486 0.274-0.676s0.399-0.286 0.649-0.286c0.26 0 0.476 0.095 0.649 0.286l9.505 9.931 9.505-9.931c0.183-0.19 0.399-0.286 0.649-0.286 0.26 0 0.476 0.095 0.649 0.286 0.183 0.18 0.274 0.406 0.274 0.676 0 0.26-0.091 0.486-0.274 0.676l-10.082 10.547c-0.202 0.21-0.442 0.315-0.721 0.315s-0.519-0.105-0.721-0.315l-10.082-10.547z"></path>
</symbol>
<symbol id="icon-close-button" viewBox="0 0 34 32">
<path fill="#cd0d0d" style="fill: var(--color3, #cd0d0d)" d="M0.8 16c0 8.837 7.163 16 16 16s16-7.163 16-16c0-8.837-7.163-16-16-16s-16 7.163-16 16z"></path>
<path fill="#fff" style="fill: var(--color1, #fff)" d="M9.3 10.011l1.511-1.511 5.989 5.989 5.989-5.989 1.511 1.511-5.989 5.989 5.989 5.989-1.511 1.511-5.989-5.989-5.989 5.989-1.511-1.511 5.989-5.989-5.989-5.989z"></path>
</symbol>
<symbol id="icon-move" viewBox="0 0 32 32">
<path fill="#4d4d4d" style="fill: var(--color4, #4d4d4d)" d="M32 16c0 8.837-7.163 16-16 16s-16-7.163-16-16c0-8.837 7.163-16 16-16s16 7.163 16 16z"></path>
<path fill="#fff" style="fill: var(--color1, #fff)" d="M9 19.75h14v-1.5h-14v1.5zM9 22h14v-0.75h-14v0.75zM9 16.75h14v-2.25h-14v2.25zM9 10v3h14v-3h-14z"></path>
</symbol>
<symbol id="icon-checked-active" viewBox="0 0 32 32">
<path fill="#18e145" style="fill: var(--color5, #18e145)" d="M0.379 15.868c0-8.691 7.054-15.745 15.745-15.745s15.745 7.054 15.745 15.745c0 8.691-7.054 15.745-15.745 15.745s-15.745-7.054-15.745-15.745zM5.103 15.867l7.873 7.873 14.171-14.171-2.22-2.236-11.951 11.951-5.652-5.637-2.22 2.22z"></path>
</symbol>
<symbol id="icon-queue" viewBox="0 0 48 32">
<path fill="#ffc896" style="fill: var(--color6, #ffc896)" d="M2.093 1.947h24.562v4.094h-24.562v-4.094zM2.093 10.135h24.562v4.094h-24.562v-4.094zM2.093 22.415h16.375v-4.094h-16.375v4.094zM45.077 16.275l-3.070-3.070-11.237 11.258-6.161-6.141-3.070 3.070 9.231 9.211 14.307-14.328z"></path>
</symbol>
<symbol id="icon-upload" viewBox="0 0 32 32">
<path d="M6.667 5.333h18.667c1.48 0 2.667 1.2 2.667 2.667v16c0 1.467-1.2 2.667-2.667 2.667h-5.333v-2.667h5.333v-13.333h-18.667v13.333h5.333v2.667h-5.333c-1.48 0-2.667-1.2-2.667-2.667v-16c0-1.467 1.187-2.667 2.667-2.667zM10.667 18.666l5.333-5.333 5.333 5.333h-4v8h-2.667v-8h-4z"></path>
</symbol>
<symbol id="icon-arrow-up" viewBox="0 0 43 32">
<path fill="#8d8d8d" style="fill: var(--color7, #8d8d8d)" d="M37.643 29.576l-16.32-16.782-16.32 16.782-5.013-5.166 21.333-21.985 21.333 21.985-5.013 5.166z"></path>
</symbol>
<symbol id="icon-arrow-down" viewBox="0 0 43 32">
<path fill="#8d8d8d" style="fill: var(--color7, #8d8d8d)" d="M5.013 2.424l16.32 16.782 16.32-16.782 5.013 5.166-21.333 21.985-21.333-21.985 5.013-5.166z"></path>
</symbol>
<symbol id="icon-copy-2" viewBox="0 0 35 32">
<path d="M22.667 1.333v2.667h-16v18.667h-2.667v-18.667c0-1.467 1.2-2.667 2.667-2.667h16zM26.667 6.667c1.467 0 2.667 1.2 2.667 2.667v18.667c0 1.467-1.2 2.667-2.667 2.667h-14.667c-1.467 0-2.667-1.2-2.667-2.667v-18.667c0-1.467 1.2-2.667 2.667-2.667h14.667zM12 28h14.667v-18.667h-14.667v18.667z"></path>
</symbol>
<symbol id="icon-atomichub" viewBox="0 0 32 32">
<path d="M21.289 29.893c-0.314 0.403-0.687 0.748-1.112 0.947-0.212 0.099-0.437 0.152-0.661 0.181-0.228 0.008-0.454 0.007-0.679-0.053-0.448-0.1-0.883-0.319-1.281-0.608-0.399-0.287-0.771-0.631-1.113-1.006-0.341-0.377-0.664-0.776-0.965-1.196-0.174-0.247-0.341-0.5-0.505-0.755-0.361 0.239-0.729 0.471-1.105 0.691 0.529 0.729 1.111 1.426 1.783 2.052 0.416 0.386 0.864 0.748 1.37 1.044 0.502 0.295 1.068 0.532 1.683 0.603 0.305 0.044 0.622 0.017 0.927-0.033 0.304-0.071 0.597-0.18 0.858-0.339 0.52-0.32 0.911-0.777 1.191-1.265 0.559-0.985 0.8-2.065 0.926-3.135-0.155 0.517-0.325 1.027-0.542 1.512-0.212 0.486-0.464 0.953-0.776 1.36z"></path>
<path d="M5.697 27.039c-0.153-0.181-0.26-0.416-0.348-0.666l-0.059-0.194-0.042-0.205-0.017-0.082-0.004-0.021-0.013-0.107-0.027-0.215c-0.017-0.293-0.024-0.593 0.003-0.9 0.045-0.612 0.167-1.234 0.329-1.852 0.329-1.236 0.822-2.451 1.393-3.629 0.568-1.18 1.221-2.322 1.931-3.436 0.013 0.064 0.025 0.127 0.038 0.191 0.058 0.28 0.117 0.558 0.18 0.837l-3.363 7.693c-0.003 0.031-0.007 0.061-0.010 0.091h5.774l0.128-0.332c0 0.001 0.001 0.002 0.001 0.002s0.001-0.001 0.001-0.001c0.079 0.166 0.157 0.332 0.239 0.497 0.192 0.387 0.396 0.769 0.605 1.147-0.395 0.241-0.795 0.47-1.201 0.683-0.563 0.292-1.137 0.552-1.72 0.758-0.582 0.201-1.174 0.365-1.745 0.411-0.142 0.009-0.285 0.022-0.421 0.015-0.141 0.004-0.271-0.016-0.404-0.027-0.17-0.027-0.331-0.068-0.483-0.122-0.079-0.028-0.156-0.058-0.228-0.095-0.114-0.062-0.219-0.135-0.316-0.217-0.080-0.068-0.155-0.142-0.224-0.225zM17.463 17.482h-3.289l1.644-4.257 1.645 4.257zM9.854 10.261c0.325 0.003 0.65 0.010 0.975 0.022 0.219 0.009 0.438 0.022 0.656 0.034v0.001c0.126 0.008 0.255 0.016 0.384 0.025 0.107 0.008 0.215 0.015 0.323 0.024 0.033 0.002 0.066 0.005 0.099 0.008 0.186 0.015 0.374 0.031 0.562 0.048 0.179 0.017 0.357 0.033 0.535 0.052 0.226 0.024 0.448 0.050 0.662 0.077 1.071 0.132 2.138 0.305 3.197 0.521 1.060 0.21 2.111 0.461 3.149 0.755 0.045 0.012 0.090 0.026 0.135 0.038 0.17 0.048 0.339 0.097 0.507 0.147 0.087 0.026 0.175 0.052 0.262 0.079 0.096 0.030 0.191 0.060 0.287 0.090 0.104 0.033 0.208 0.066 0.312 0.1 0.127 0.042 0.254 0.084 0.38 0.126 0.398 0.135 0.794 0.275 1.187 0.423 0.344 0.129 0.685 0.267 1.023 0.409-0.573 0.984-1.199 1.942-1.873 2.868-0.047 0.065-0.097 0.129-0.145 0.194l-1.495-3.419c-0.25-0.076-0.501-0.15-0.754-0.219-1.038-0.293-2.090-0.544-3.149-0.755-1.059-0.217-2.126-0.389-3.197-0.521-0.697-0.090-1.622-0.179-2.363-0.232l-0.417 0.954c0.003 0 0.005-0.001 0.008-0.001 0.001 0.011 0.002 0.022 0.003 0.033 0.108 1.043 0.263 2.084 0.459 3.118 0.19 1.035 0.424 2.063 0.691 3.082 0.263 1.020 0.571 2.028 0.91 3.024 0.026 0.076 0.054 0.152 0.081 0.227h4.58c-0.126 0.121-0.251 0.244-0.378 0.364-0.948 0.89-1.936 1.736-2.972 2.508-0.269 0.204-0.541 0.402-0.817 0.594-0.343-0.701-0.658-1.417-0.949-2.144-0.107-0.266-0.21-0.535-0.31-0.803l0.069-0.179c-0.040 0.014-0.081 0.027-0.121 0.041-0.103-0.279-0.204-0.559-0.3-0.84-0.17-0.498-0.331-0.999-0.484-1.503s-0.295-1.011-0.426-1.521c-0.134-0.509-0.259-1.021-0.375-1.535s-0.222-1.030-0.316-1.547c-0.065-0.342-0.123-0.684-0.179-1.027-0.015-0.093-0.030-0.185-0.044-0.278-0.001-0.007-0.002-0.014-0.003-0.021-0.011-0.072-0.024-0.144-0.034-0.216-0.001-0.004-0.001-0.008-0.002-0.012-0.001-0.008-0.002-0.017-0.003-0.025-0.037-0.252-0.072-0.504-0.104-0.756-0.013-0.109-0.025-0.217-0.037-0.326-0.018-0.152-0.037-0.304-0.052-0.456-0.001-0.011-0.002-0.022-0.003-0.033-0.058-0.538-0.103-1.078-0.133-1.617zM10.002 5.689c0.076-0.505 0.169-1.006 0.306-1.487 0.133-0.481 0.299-0.947 0.517-1.37 0.218-0.419 0.482-0.801 0.805-1.074 0.325-0.263 0.698-0.428 1.117-0.448 0.418-0.023 0.87 0.1 1.305 0.303 0.437 0.207 0.855 0.495 1.251 0.819 0.797 0.651 1.495 1.454 2.141 2.297 0.302 0.394 0.589 0.802 0.865 1.218-0.47 0.346-0.926 0.709-1.367 1.086 0.493-0.311 0.988-0.614 1.493-0.897 0.276 0.414 0.537 0.837 0.797 1.265-0.177-0.468-0.377-0.927-0.587-1.383 0.003-0.002 0.006-0.004 0.009-0.005 0.578-0.323 1.167-0.624 1.77-0.887s1.212-0.5 1.833-0.679c0.62-0.175 1.252-0.303 1.868-0.315 0.152-0.004 0.304-0.001 0.453 0.011 0.449 0.034 0.874 0.141 1.214 0.356 0.228 0.14 0.414 0.324 0.566 0.533 0.109 0.152 0.189 0.328 0.254 0.512 0.025 0.072 0.048 0.145 0.069 0.219l0.047 0.204c0.012 0.070 0.019 0.142 0.029 0.213l0.015 0.106 0.006 0.11 0.013 0.219c0 0.297-0.012 0.598-0.057 0.902-0.081 0.608-0.239 1.218-0.433 1.82-0.28 0.853-0.642 1.689-1.052 2.504-0.394-0.181-0.791-0.354-1.19-0.519-0.701-0.287-1.411-0.545-2.128-0.781 0 0 0 0 0 0-0.153-0.051-0.307-0.1-0.46-0.149-0.202-0.064-0.405-0.128-0.608-0.188-0.399-0.116-0.801-0.224-1.203-0.328l-0.988-2.261h-5.611l-0.488 1.116c-0.038-0.002-0.075-0.004-0.113-0.006-0.226-0.014-0.452-0.026-0.678-0.035-0.304-0.013-0.609-0.022-0.914-0.025-0.353-0.004-0.708 0-1.062 0.009-0.003-1.005 0.054-2.006 0.194-2.984zM18.621 23.206c0.254-0.241 0.505-0.484 0.753-0.731 0.715-0.712 1.404-1.449 2.066-2.209 0.619-0.724 1.216-1.466 1.786-2.231 0.242-0.324 0.481-0.652 0.712-0.985 0.702-1.021 1.362-2.074 1.945-3.175 0.057-0.107 0.114-0.214 0.169-0.322 0.177-0.348 0.349-0.7 0.512-1.056 0.123-0.267 0.242-0.536 0.353-0.81 0.257-0.639 0.488-1.292 0.673-1.964s0.324-1.365 0.379-2.081c0.031-0.357 0.028-0.723 0.006-1.090l-0.032-0.278-0.017-0.139-0.028-0.14c-0.019-0.093-0.036-0.185-0.059-0.278l-0.083-0.277c-0.042-0.122-0.090-0.244-0.144-0.365-0.107-0.24-0.239-0.472-0.411-0.683-0.257-0.313-0.575-0.582-0.932-0.761-0.355-0.183-0.736-0.288-1.108-0.333s-0.74-0.042-1.097-0.003c-0.713 0.079-1.382 0.282-2.022 0.525-0.638 0.25-1.251 0.545-1.835 0.884-0.58 0.332-1.139 0.694-1.678 1.081-0.216-0.445-0.446-0.885-0.694-1.318-0.545-0.945-1.184-1.846-1.969-2.655-0.398-0.399-0.84-0.769-1.351-1.074-0.512-0.297-1.109-0.529-1.771-0.553-0.661-0.033-1.345 0.206-1.875 0.588-0.53 0.388-0.92 0.888-1.224 1.404-0.605 1.040-0.922 2.153-1.135 3.259-0.215 1.105-0.3 2.216-0.33 3.321-0.237 0.020-0.474 0.041-0.711 0.067-1.131 0.13-2.261 0.334-3.369 0.687-0.379 0.12-0.754 0.261-1.124 0.425v0c-0.066 0.029-0.132 0.060-0.198 0.090-0.103 0.048-0.207 0.098-0.309 0.15-0.066 0.035-0.132 0.070-0.197 0.106s-0.131 0.074-0.196 0.113c-0.324 0.193-0.637 0.416-0.926 0.681-0.058 0.053-0.114 0.108-0.17 0.165l-0.164 0.172c-0.053 0.060-0.101 0.126-0.151 0.188-0.104 0.122-0.188 0.265-0.273 0.404-0.008 0.012-0.014 0.026-0.022 0.039-0.034 0.058-0.062 0.121-0.091 0.182-0.017 0.038-0.035 0.075-0.053 0.113s-0.034 0.075-0.047 0.115c-0.026 0.080-0.053 0.159-0.076 0.239s-0.045 0.16-0.058 0.243c-0.062 0.328-0.064 0.666-0.010 0.986 0.013 0.080 0.029 0.159 0.048 0.237 0.014 0.058 0.030 0.116 0.047 0.173 0.051 0.171 0.115 0.335 0.19 0.491 0.1 0.209 0.214 0.405 0.339 0.591 0.042 0.062 0.085 0.122 0.129 0.182 0.088 0.119 0.18 0.233 0.276 0.344s0.194 0.217 0.295 0.32c0.403 0.413 0.843 0.775 1.306 1.096 0.116 0.081 0.232 0.159 0.349 0.236 0.235 0.153 0.474 0.299 0.716 0.437 0.121 0.069 0.243 0.137 0.366 0.202 0.368 0.197 0.744 0.379 1.123 0.547 0.127 0.056 0.254 0.111 0.382 0.165-0.233-0.149-0.465-0.299-0.694-0.454s-0.454-0.311-0.675-0.475c-0.222-0.161-0.44-0.327-0.653-0.497s-0.42-0.347-0.621-0.53c-0.1-0.092-0.198-0.184-0.295-0.278-0.194-0.188-0.381-0.38-0.556-0.58-0.088-0.1-0.172-0.202-0.254-0.306-0.081-0.103-0.16-0.208-0.234-0.316-0.037-0.054-0.073-0.108-0.108-0.162-0.105-0.163-0.199-0.331-0.279-0.501-0.054-0.113-0.101-0.228-0.141-0.344-0.020-0.057-0.039-0.115-0.056-0.173-0.050-0.173-0.082-0.347-0.094-0.517-0.008-0.114-0.007-0.226 0.004-0.336s0.031-0.218 0.063-0.323c0.015-0.053 0.032-0.104 0.051-0.155 0.032-0.084 0.072-0.166 0.115-0.245 0.062-0.113 0.134-0.222 0.217-0.325 0.106-0.132 0.228-0.256 0.361-0.372 0.356-0.308 0.79-0.559 1.254-0.762s0.961-0.358 1.465-0.491c1.204-0.299 2.455-0.451 3.72-0.51 0.023 0.68 0.071 1.358 0.139 2.033v0c0.051 0.506 0.112 1.010 0.185 1.512 0.003 0.016 0.005 0.033 0.008 0.049 0.034 0.233 0.069 0.465 0.107 0.697 0.030 0.182 0.063 0.364 0.095 0.546-0.93 1.15-1.788 2.364-2.551 3.647-0.684 1.166-1.29 2.389-1.729 3.702-0.22 0.656-0.394 1.336-0.487 2.048-0.050 0.355-0.065 0.722-0.063 1.093 0.021 0.375 0.051 0.755 0.165 1.14 0.111 0.381 0.267 0.77 0.525 1.116 0.069 0.094 0.144 0.183 0.224 0.27 0.212 0.23 0.459 0.431 0.728 0.59 0.11 0.064 0.223 0.118 0.338 0.167 0.272 0.116 0.554 0.194 0.832 0.249 0.197 0.028 0.396 0.060 0.588 0.063 0.196 0.015 0.385 0.006 0.576 0 0.758-0.038 1.467-0.207 2.145-0.425 0.254-0.083 0.503-0.175 0.749-0.272 0.41-0.161 0.81-0.337 1.201-0.528 0.45-0.225 0.89-0.465 1.32-0.717 0.393-0.231 0.778-0.472 1.155-0.723 1.495-0.992 2.874-2.131 4.176-3.34z"></path>
<path d="M31.93 17.848c-0.017-0.076-0.036-0.15-0.057-0.224-0.007-0.025-0.015-0.049-0.023-0.073-0.015-0.048-0.030-0.096-0.046-0.144-0.010-0.029-0.021-0.057-0.031-0.086-0.015-0.042-0.032-0.084-0.048-0.125-0.012-0.030-0.025-0.059-0.038-0.089-0.017-0.039-0.034-0.078-0.052-0.116-0.014-0.030-0.028-0.059-0.042-0.089-0.018-0.037-0.037-0.073-0.056-0.109-0.015-0.029-0.031-0.059-0.047-0.088-0.020-0.036-0.040-0.071-0.061-0.106-0.016-0.028-0.032-0.056-0.049-0.084-0.032-0.054-0.066-0.107-0.1-0.159-0.003-0.004-0.005-0.009-0.008-0.013 0 0 0 0 0 0-0.044-0.068-0.089-0.135-0.135-0.201-0.353-0.497-0.76-0.933-1.192-1.329-0.811-0.745-1.704-1.36-2.629-1.902-0.2 0.46-0.416 0.911-0.641 1.357 0.38 0.204 0.75 0.421 1.111 0.649 0.448 0.278 0.875 0.583 1.275 0.911 0.398 0.329 0.773 0.679 1.085 1.063 0.062 0.076 0.121 0.154 0.178 0.233 0.112 0.155 0.212 0.315 0.298 0.478 0.002 0.004 0.004 0.008 0.006 0.012 0.040 0.076 0.075 0.152 0.108 0.229 0.006 0.014 0.012 0.028 0.017 0.042 0.031 0.077 0.061 0.154 0.085 0.231 0.016 0.054 0.030 0.107 0.042 0.161 0.023 0.107 0.038 0.215 0.043 0.322 0.003 0.054 0.004 0.107 0.002 0.161-0.003 0.107-0.015 0.214-0.037 0.32s-0.051 0.211-0.090 0.315c-0.040 0.103-0.090 0.205-0.148 0.303-0.116 0.198-0.266 0.385-0.439 0.56-0.043 0.044-0.088 0.087-0.134 0.128s-0.093 0.083-0.141 0.123-0.197 0.159-0.302 0.234c-0.197 0.14-0.407 0.268-0.625 0.386-0.073 0.039-0.146 0.078-0.22 0.115-0.058 0.030-0.116 0.060-0.174 0.089-0.066 0.032-0.134 0.060-0.201 0.090-0.299 0.133-0.605 0.253-0.918 0.362-0.128 0.045-0.256 0.087-0.386 0.129-0.165 0.053-0.332 0.102-0.499 0.149-0.226 0.064-0.455 0.123-0.685 0.178-0.133 0.032-0.267 0.062-0.401 0.091-0.125 0.028-0.25 0.055-0.375 0.081l-1.48-3.385c-0.535 0.709-1.092 1.402-1.669 2.076-0.713 0.818-1.458 1.609-2.232 2.371l0.41 1.065h5.9l-0.844-1.931c0.664-0.038 1.328-0.112 1.989-0.234 0.415-0.073 0.827-0.172 1.236-0.296 0.136-0.041 0.272-0.085 0.407-0.132 0.067-0.024 0.135-0.049 0.202-0.074 0.202-0.076 0.402-0.16 0.599-0.254 0.263-0.125 0.522-0.269 0.771-0.436 0.493-0.336 0.961-0.783 1.262-1.377 0.299-0.591 0.372-1.317 0.229-1.957z"></path>
</symbol>
<symbol id="icon-filter" viewBox="0 0 45 32">
<path d="M0 2.075v4.978h44.8v-4.978h-44.8zM17.422 31.942h9.955v-4.978h-9.955v4.978zM37.333 19.497h-29.867v-4.978h29.867v4.978z"></path>
</symbol>
<symbol id="icon-website" viewBox="0 0 31 32">
<path d="M15.433 0.474c-8.527 0-15.433 6.921-15.433 15.448s6.905 15.448 15.433 15.448c8.543 0 15.464-6.921 15.464-15.448s-6.921-15.448-15.464-15.448zM26.138 9.743h-4.557c-0.494-1.931-1.205-3.785-2.132-5.5 2.842 0.973 5.206 2.951 6.689 5.5zM15.448 3.626c1.282 1.854 2.286 3.908 2.951 6.118h-5.901c0.664-2.209 1.668-4.264 2.951-6.118zM3.491 19.012c-0.247-0.989-0.402-2.024-0.402-3.090s0.154-2.101 0.402-3.090h5.222c-0.124 1.020-0.216 2.039-0.216 3.090s0.093 2.070 0.216 3.090h-5.222zM4.758 22.102h4.557c0.494 1.931 1.205 3.785 2.132 5.5-2.842-0.973-5.206-2.935-6.689-5.5zM9.315 9.743h-4.557c1.483-2.564 3.847-4.526 6.689-5.5-0.927 1.715-1.638 3.569-2.132 5.5zM15.448 28.219c-1.282-1.854-2.286-3.908-2.951-6.118h5.901c-0.664 2.209-1.668 4.264-2.951 6.118zM19.063 19.012h-7.23c-0.139-1.020-0.247-2.039-0.247-3.090s0.108-2.086 0.247-3.090h7.23c0.139 1.004 0.247 2.039 0.247 3.090s-0.108 2.070-0.247 3.090zM19.449 27.601c0.927-1.715 1.638-3.569 2.132-5.5h4.557c-1.483 2.549-3.847 4.526-6.689 5.5zM22.184 19.012c0.124-1.020 0.216-2.039 0.216-3.090s-0.093-2.070-0.216-3.090h5.222c0.247 0.989 0.402 2.024 0.402 3.090s-0.154 2.101-0.402 3.090h-5.222z"></path>
</symbol>
<symbol id="icon-computer" viewBox="0 0 47 32">
<path d="M43.118 23.844c0 2.157-1.745 3.922-3.902 3.922h7.843v3.922h-47.059v-3.922h7.843c-2.157 0-3.922-1.765-3.922-3.922v-19.608c0-2.157 1.765-3.922 3.922-3.922h31.373c2.157 0 3.922 1.765 3.922 3.922l-0.020 19.608zM39.216 4.236h-31.373v19.608h31.373v-19.608z"></path>
</symbol>
<symbol id="icon-interior" viewBox="0 0 30 32">
<path d="M14.286 0.127l-8.73 14.286h17.46l-8.73-14.286zM23.016 31.873c3.945 0 7.143-3.198 7.143-7.143s-3.198-7.143-7.143-7.143c-3.945 0-7.143 3.198-7.143 7.143s3.198 7.143 7.143 7.143zM12.698 18.38h-12.698v12.698h12.698v-12.698z"></path>
</symbol>
<symbol id="icon-material" viewBox="0 0 32 32">
<path d="M31.373 4.236c0 2.157-1.765 3.922-3.922 3.922s-3.922-1.765-3.922-3.922 1.765-3.922 3.922-3.922c2.157 0 3.922 1.765 3.922 3.922zM0 12.079c0-2.157 1.765-3.922 3.922-3.922s3.922 1.765 3.922 3.922c0 2.157-1.765 3.922-3.922 3.922s-3.922-1.765-3.922-3.922zM7.843 19.922c0-2.157 1.765-3.922 3.922-3.922s3.922 1.765 3.922 3.922c0 2.157-1.765 3.922-3.922 3.922s-3.922-1.765-3.922-3.922zM3.922 23.844c-2.157 0-3.922 1.765-3.922 3.922s1.765 3.922 3.922 3.922 3.922-1.765 3.922-3.922c0-2.157-1.765-3.922-3.922-3.922zM19.608 23.844c-2.157 0-3.921 1.765-3.921 3.922s1.765 3.922 3.921 3.922c2.157 0 3.922-1.765 3.922-3.922s-1.765-3.922-3.922-3.922zM23.529 19.922c0-2.157 1.765-3.922 3.922-3.922s3.922 1.765 3.922 3.922c0 2.157-1.765 3.922-3.922 3.922s-3.922-1.765-3.922-3.922zM19.608 8.157c-2.157 0-3.921 1.765-3.921 3.922s1.765 3.922 3.921 3.922c2.157 0 3.922-1.765 3.922-3.922s-1.765-3.922-3.922-3.922zM7.843 4.236c0-2.157 1.765-3.922 3.922-3.922s3.922 1.765 3.922 3.922c0 2.157-1.765 3.922-3.922 3.922s-3.922-1.765-3.922-3.922z"></path>
</symbol>
<symbol id="icon-star" viewBox="0 0 32 32">
<path d="M15.984 0c-8.832 0-15.984 7.168-15.984 16s7.152 16 15.984 16c8.848 0 16.016-7.168 16.016-16s-7.168-16-16.016-16zM22.768 25.6l-6.768-4.080-6.768 4.080 1.792-7.696-5.968-5.168 7.872-0.672 3.072-7.264 3.072 7.248 7.872 0.672-5.968 5.168 1.792 7.712z"></path>
</symbol>
<symbol id="icon-quarter" viewBox="0 0 32 32">
<path d="M13.091 11.636h5.818v-4.364h4.364l-7.273-7.273-7.273 7.273h4.364v4.364zM11.636 13.091h-4.364v-4.364l-7.273 7.273 7.273 7.273v-4.364h4.364v-5.818zM32 16l-7.273-7.273v4.364h-4.364v5.818h4.364v4.364l7.273-7.273zM18.909 20.364h-5.818v4.364h-4.364l7.273 7.273 7.273-7.273h-4.364v-4.364z"></path>
</symbol>
<symbol id="icon-location" viewBox="0 0 22 32">
<path d="M11.2 0c-6.192 0-11.2 5.008-11.2 11.2 0 8.4 11.2 20.8 11.2 20.8s11.2-12.4 11.2-20.8c0-6.192-5.008-11.2-11.2-11.2zM11.2 15.2c-2.208 0-4-1.792-4-4s1.792-4 4-4c2.208 0 4 1.792 4 4s-1.792 4-4 4z"></path>
</symbol>
<symbol id="icon-one" viewBox="0 0 32 32">
<path d="M28.444 0h-24.889c-1.956 0-3.556 1.6-3.556 3.556v24.889c0 1.956 1.6 3.556 3.556 3.556h24.889c1.956 0 3.556-1.6 3.556-3.556v-24.889c0-1.956-1.6-3.556-3.556-3.556zM19.556 24.889h-3.556v-14.222h-3.556v-3.556h7.111v17.778z"></path>
</symbol>
<symbol id="icon-social-twitter" viewBox="0 0 39 32">
<path d="M38.957 3.652c-1.461 0.73-2.922 0.974-4.626 1.217 1.704-0.974 2.922-2.435 3.409-4.383-1.461 0.974-3.165 1.461-5.113 1.948-1.461-1.461-3.652-2.435-5.843-2.435-5.113 0-9.009 4.87-7.791 9.739-6.574-0.243-12.417-3.409-16.557-8.278-2.191 3.652-0.974 8.278 2.435 10.713-1.217 0-2.435-0.487-3.652-0.974 0 3.652 2.678 7.061 6.33 8.035-1.217 0.243-2.435 0.487-3.652 0.243 0.974 3.165 3.896 5.6 7.548 5.6-2.922 2.191-7.304 3.409-11.443 2.922 3.652 2.191 7.791 3.652 12.174 3.652 14.852 0 23.13-12.417 22.643-23.861 1.704-0.974 3.165-2.435 4.139-4.139z"></path>
</symbol>
<symbol id="icon-social-facebook" viewBox="0 0 32 32">
<path d="M32 16c0-8.8-7.2-16-16-16s-16 7.2-16 16c0 8 5.8 14.6 13.4 15.8v-11.2h-4v-4.6h4v-3.6c0-4 2.4-6.2 6-6.2 1.8 0 3.6 0.4 3.6 0.4v4h-2c-2 0-2.6 1.2-2.6 2.4v3h4.4l-0.8 4.6h-3.8v11.4c8-1.2 13.8-8 13.8-16z"></path>
</symbol>
<symbol id="icon-copy" viewBox="0 0 28 32">
<path d="M20.364 0h-17.455c-1.6 0-2.909 1.309-2.909 2.909v20.364h2.909v-20.364h17.455v-2.909zM18.909 5.818l8.727 8.727v14.545c0 1.6-1.309 2.909-2.909 2.909h-16.015c-1.6 0-2.895-1.309-2.895-2.909l0.015-20.364c0-1.6 1.295-2.909 2.895-2.909h10.182zM17.455 16h8l-8-8v8z"></path>
</symbol>
<symbol id="icon-metamask" viewBox="0 0 35 32">
<path fill="#e17726" style="fill: var(--color8, #e17726)" d="M32.5 0.97l-12.958 9.588 2.41-5.651 10.549-3.938z"></path>
<path fill="#e27625" style="fill: var(--color9, #e27625)" d="M2.61 0.97l12.843 9.678-2.294-5.74-10.549-3.938z"></path>
<path fill="#e27625" style="fill: var(--color9, #e27625)" d="M27.834 23.201l-3.448 5.267 7.383 2.033 2.115-7.185-6.050-0.115z"></path>
<path fill="#e27625" style="fill: var(--color9, #e27625)" d="M1.239 23.316l2.102 7.185 7.37-2.033-3.435-5.267-6.037 0.115z"></path>
<path fill="#e27625" style="fill: var(--color9, #e27625)" d="M10.313 14.303l-2.051 3.094 7.306 0.332-0.243-7.862-5.012 4.436z"></path>
<path fill="#e27625" style="fill: var(--color9, #e27625)" d="M24.797 14.304l-5.088-4.526-0.167 7.952 7.306-0.332-2.051-3.094z"></path>
<path fill="#e27625" style="fill: var(--color9, #e27625)" d="M10.711 28.468l4.422-2.135-3.807-2.966-0.615 5.101z"></path>
<path fill="#e27625" style="fill: var(--color9, #e27625)" d="M19.977 26.333l4.409 2.135-0.602-5.101-3.807 2.966z"></path>
<path fill="#d5bfb2" style="fill: var(--color10, #d5bfb2)" d="M24.386 28.468l-4.409-2.135 0.359 2.864-0.038 1.214 4.089-1.943z"></path>
<path fill="#d5bfb2" style="fill: var(--color10, #d5bfb2)" d="M10.711 28.468l4.102 1.943-0.026-1.214 0.346-2.864-4.422 2.135z"></path>
<path fill="#233447" style="fill: var(--color11, #233447)" d="M14.889 21.475l-3.666-1.074 2.589-1.189 1.077 2.263z"></path>
<path fill="#233447" style="fill: var(--color11, #233447)" d="M20.222 21.475l1.077-2.263 2.602 1.189-3.679 1.074z"></path>
<path fill="#cc6228" style="fill: var(--color12, #cc6228)" d="M10.711 28.468l0.641-5.267-4.076 0.115 3.435 5.152z"></path>
<path fill="#cc6228" style="fill: var(--color12, #cc6228)" d="M23.759 23.201l0.628 5.267 3.448-5.152-4.076-0.115z"></path>
<path fill="#cc6228" style="fill: var(--color12, #cc6228)" d="M26.847 17.398l-7.306 0.332 0.679 3.746 1.077-2.263 2.602 1.189 2.948-3.004z"></path>
<path fill="#cc6228" style="fill: var(--color12, #cc6228)" d="M11.223 20.402l2.589-1.189 1.077 2.263 0.679-3.746-7.306-0.332 2.961 3.004z"></path>
<path fill="#e27525" style="fill: var(--color13, #e27525)" d="M8.263 17.398l3.063 5.97-0.103-2.966-2.961-3.004z"></path>
<path fill="#e27525" style="fill: var(--color13, #e27525)" d="M23.899 20.402l-0.115 2.966 3.063-5.97-2.948 3.004z"></path>
<path fill="#e27525" style="fill: var(--color13, #e27525)" d="M15.569 17.729l-0.679 3.746 0.859 4.423 0.192-5.83-0.372-2.34z"></path>
<path fill="#e27525" style="fill: var(--color13, #e27525)" d="M19.542 17.729l-0.359 2.327 0.18 5.842 0.859-4.423-0.679-3.746z"></path>
<path fill="#f5841f" style="fill: var(--color14, #f5841f)" d="M20.221 21.475l-0.859 4.423 0.615 0.435 3.807-2.966 0.115-2.966-3.679 1.074z"></path>
<path fill="#f5841f" style="fill: var(--color14, #f5841f)" d="M11.223 20.402l0.103 2.966 3.807 2.966 0.615-0.435-0.859-4.423-3.666-1.074z"></path>
<path fill="#c0ac9d" style="fill: var(--color15, #c0ac9d)" d="M20.298 30.411l0.038-1.215-0.333-0.281h-4.896l-0.32 0.281 0.026 1.215-4.102-1.943 1.436 1.176 2.909 2.007h4.986l2.922-2.007 1.423-1.176-4.089 1.943z"></path>
<path fill="#161616" style="fill: var(--color16, #161616)" d="M19.978 26.332l-0.615-0.435h-3.614l-0.615 0.435-0.346 2.864 0.32-0.281h4.896l0.333 0.281-0.359-2.864z"></path>
<path fill="#763e1a" style="fill: var(--color17, #763e1a)" d="M33.051 11.184l1.089-5.293-1.641-4.922-12.522 9.269 4.819 4.065 6.806 1.982 1.5-1.751-0.654-0.473 1.038-0.946-0.795-0.614 1.038-0.793-0.679-0.524z"></path>
<path fill="#763e1a" style="fill: var(--color17, #763e1a)" d="M0.97 5.892l1.102 5.293-0.705 0.524 1.051 0.793-0.795 0.614 1.038 0.946-0.654 0.473 1.5 1.751 6.806-1.982 4.819-4.065-12.522-9.269-1.641 4.922z"></path>
<path fill="#f5841f" style="fill: var(--color14, #f5841f)" d="M31.603 16.285l-6.806-1.981 2.051 3.094-3.063 5.97 4.050-0.051h6.050l-2.281-7.031z"></path>
<path fill="#f5841f" style="fill: var(--color14, #f5841f)" d="M10.313 14.303l-6.806 1.981-2.269 7.031h6.037l4.050 0.051-3.063-5.97 2.051-3.094z"></path>
<path fill="#f5841f" style="fill: var(--color14, #f5841f)" d="M19.542 17.73l0.436-7.492 1.974-5.331h-8.793l1.974 5.331 0.436 7.492 0.167 2.352 0.013 5.817h3.614l0.013-5.817 0.167-2.352z"></path>
</symbol>
<symbol id="icon-arrow-left" viewBox="0 0 27 32">
<path d="M0 16l27.429-15.836v31.672l-27.429-15.836z"></path>
</symbol>
<symbol id="icon-checked" viewBox="0 0 32 32">
<path d="M23.344 8.928l-10.544 10.544-5.744-5.728-2.256 2.256 8 8 12.8-12.8-2.256-2.272zM16 0c-8.832 0-16 7.168-16 16s7.168 16 16 16c8.832 0 16-7.168 16-16s-7.168-16-16-16zM16 28.8c-7.072 0-12.8-5.728-12.8-12.8s5.728-12.8 12.8-12.8c7.072 0 12.8 5.728 12.8 12.8s-5.728 12.8-12.8 12.8z"></path>
</symbol>
<symbol id="icon-log-out" viewBox="0 0 33 32">
<path fill="#cd0d0d" style="fill: var(--color3, #cd0d0d)" d="M6.699 0h20.364c3.213 0 5.818 2.605 5.818 5.818v20.364c0 3.213-2.605 5.818-5.818 5.818h-20.364c-3.213 0-5.818-2.605-5.818-5.818v-20.364c0-3.213 2.605-5.818 5.818-5.818z"></path>
<path fill="#fff" style="fill: var(--color1, #fff)" d="M26.714 5.818h-20.231c-1.236 0-2.248 1.019-2.248 2.265v4.519h2.248v-4.542h20.231v15.89h-20.231v-4.553h-2.248v4.542c0 1.246 1.012 2.242 2.248 2.242h20.231c1.236 0 2.248-0.997 2.248-2.242v-15.856c0-1.257-1.012-2.265-2.248-2.265zM15.474 20.53l4.496-4.53-4.496-4.53v3.398h-11.24v2.265h11.24v3.398z"></path>
</symbol>
<symbol id="icon-opensea" viewBox="0 0 32 32">
<path d="M16 0c-8.835 0-16 7.165-16 16s7.165 16 16 16c8.835 0 16-7.165 16-16s-7.162-16-16-16zM7.894 16.538l0.067-0.109 4.163-6.512c0.061-0.093 0.205-0.083 0.25 0.019 0.694 1.558 1.296 3.498 1.014 4.704-0.118 0.496-0.448 1.168-0.819 1.789-0.048 0.090-0.099 0.179-0.157 0.266-0.026 0.038-0.070 0.061-0.118 0.061h-4.278c-0.115 0-0.182-0.125-0.122-0.218zM26.445 18.778c0 0.061-0.035 0.112-0.086 0.134-0.323 0.138-1.427 0.646-1.885 1.283-1.171 1.629-2.064 3.958-4.064 3.958h-8.339c-2.957 0-5.35-2.403-5.35-5.37v-0.096c0-0.077 0.064-0.141 0.144-0.141h4.646c0.093 0 0.16 0.083 0.154 0.176-0.035 0.301 0.022 0.611 0.166 0.893 0.275 0.56 0.848 0.909 1.466 0.909h2.301v-1.795h-2.275c-0.115 0-0.186-0.134-0.118-0.23 0.026-0.038 0.051-0.077 0.083-0.122 0.214-0.307 0.522-0.781 0.829-1.322 0.208-0.365 0.41-0.755 0.573-1.146 0.032-0.070 0.058-0.144 0.086-0.214 0.045-0.125 0.090-0.243 0.122-0.358 0.032-0.099 0.061-0.202 0.086-0.298 0.077-0.333 0.109-0.685 0.109-1.050 0-0.144-0.006-0.294-0.019-0.435-0.006-0.157-0.026-0.314-0.045-0.47-0.013-0.138-0.038-0.275-0.064-0.416-0.035-0.208-0.080-0.416-0.131-0.624l-0.019-0.080c-0.038-0.144-0.074-0.278-0.118-0.422-0.131-0.448-0.278-0.886-0.438-1.296-0.058-0.163-0.122-0.32-0.189-0.474-0.096-0.237-0.195-0.451-0.285-0.653-0.048-0.093-0.086-0.176-0.125-0.262-0.045-0.096-0.090-0.192-0.138-0.285-0.032-0.070-0.070-0.138-0.096-0.202l-0.282-0.518c-0.038-0.070 0.026-0.157 0.102-0.134l1.766 0.477c0.003 0 0.003 0 0.006 0l0.23 0.067 0.349 0.096v-1.043c0-0.506 0.403-0.915 0.906-0.915 0.25 0 0.477 0.102 0.637 0.269 0.163 0.166 0.266 0.394 0.266 0.646v1.552l0.189 0.051c0.013 0.006 0.029 0.013 0.042 0.022 0.045 0.032 0.112 0.083 0.195 0.147 0.067 0.051 0.138 0.115 0.221 0.182 0.17 0.138 0.374 0.314 0.595 0.515 0.058 0.051 0.115 0.102 0.17 0.157 0.285 0.266 0.605 0.576 0.912 0.922 0.086 0.099 0.17 0.195 0.256 0.301 0.083 0.106 0.176 0.208 0.253 0.31 0.106 0.138 0.214 0.282 0.314 0.432 0.045 0.070 0.099 0.144 0.141 0.214 0.128 0.189 0.237 0.384 0.342 0.579 0.045 0.090 0.090 0.189 0.128 0.285 0.118 0.262 0.211 0.528 0.269 0.797 0.019 0.058 0.032 0.118 0.038 0.176v0.013c0.019 0.077 0.026 0.16 0.032 0.246 0.026 0.272 0.013 0.547-0.045 0.822-0.026 0.115-0.058 0.224-0.096 0.342-0.042 0.112-0.080 0.227-0.131 0.339-0.099 0.227-0.214 0.458-0.352 0.669-0.045 0.080-0.099 0.163-0.15 0.243-0.058 0.083-0.118 0.163-0.17 0.24-0.074 0.099-0.15 0.202-0.23 0.294-0.070 0.096-0.141 0.192-0.221 0.278-0.109 0.131-0.214 0.253-0.326 0.371-0.064 0.077-0.134 0.157-0.208 0.227-0.070 0.080-0.144 0.15-0.208 0.214-0.112 0.112-0.202 0.195-0.278 0.269l-0.182 0.163c-0.026 0.026-0.061 0.038-0.096 0.038h-1.402v1.795h1.763c0.394 0 0.768-0.138 1.072-0.397 0.102-0.090 0.554-0.48 1.088-1.069 0.019-0.022 0.042-0.035 0.067-0.042l4.867-1.408c0.093-0.026 0.182 0.042 0.182 0.138v1.030z"></path>
</symbol>
<symbol id="icon-wax" viewBox="0 0 90 32">
<path d="M78.909 7.58l-4 3.273 4 3.636 8-6.909h-8zM60 1.761h-8.364l16.727 14.545-5.455 4.364-10.909-13.455h-7.273l-13.455 16-5.818 7.273h7.273l15.636-18.909 4.364 5.455h-5.818l-2.909 3.636h12l3.636 4.364h7.273l6.182-5.091 6.182 5.091h8.727l-28-23.273zM30.545 7.216l-4.364 12-4.364-12h-7.273l-4.364 12-4.364-12h-5.818l6.545 17.818h7.636l4-11.273 4 11.636h7.636l6.545-17.818h-5.818v-0.364z"></path>
</symbol>
<symbol id="icon-sort" viewBox="0 0 41 32">
<path d="M0 31.506h13.714v-5.251h-13.714v5.251zM0 0v5.251h41.143v-5.251h-41.143zM0 18.378h27.429v-5.251h-27.429v5.251z"></path>
</symbol>
<symbol id="icon-search" viewBox="0 0 43 32">
<path fill="#fff" style="fill: var(--color1, #fff)" d="M28.622 19.85h-1.404l-0.498-0.487c1.742-2.057 2.791-4.728 2.791-7.633 0-6.478-5.173-11.729-11.556-11.729s-11.556 5.251-11.556 11.729 5.173 11.729 11.556 11.729c2.862 0 5.493-1.065 7.52-2.833l0.48 0.505v1.426l8.889 9.005 2.649-2.689-8.871-9.023zM17.956 19.85c-4.427 0-8-3.627-8-8.12s3.573-8.12 8-8.12c4.427 0 8 3.627 8 8.12s-3.573 8.12-8 8.12z"></path>
</symbol>
<symbol id="icon-ethereum" viewBox="0 0 20 32">
<path d="M9.996 1l-9.207 15.278 9.207-4.185v-11.093z"></path>
<path d="M9.996 12.092l-9.207 4.185 9.207 5.443v-9.628z"></path>
<path d="M19.205 16.278l-9.208-15.278v11.093l9.208 4.185z"></path>
<path d="M9.996 21.72l9.208-5.443-9.208-4.185v9.628z"></path>
<path d="M0.789 18.025l9.207 12.975v-7.535l-9.207-5.44z"></path>
<path d="M9.996 23.465v7.535l9.214-12.975-9.214 5.44z"></path>
</symbol>
<symbol id="icon-my-account" viewBox="0 0 32 32">
<path d="M15.771 0.229c-8.706 0-15.771 7.066-15.771 15.771s7.066 15.771 15.771 15.771c8.706 0 15.771-7.066 15.771-15.771s-7.066-15.771-15.771-15.771zM15.771 4.96c2.618 0 4.731 2.113 4.731 4.731s-2.113 4.731-4.731 4.731c-2.618 0-4.731-2.113-4.731-4.731s2.113-4.731 4.731-4.731zM15.771 27.355c-3.943 0-7.428-2.019-9.463-5.078 0.047-3.139 6.309-4.858 9.463-4.858 3.138 0 9.416 1.719 9.463 4.858-2.035 3.060-5.52 5.078-9.463 5.078z"></path>
</symbol>
<symbol id="icon-linkedin1" viewBox="0 0 32 32">
<path fill="#fff" style="fill: var(--color1, #fff)" d="M26.732 26.55h-4.597v-7.129c0-1.7-0.031-3.888-2.391-3.888-2.394 0-2.761 1.852-2.761 3.764v7.252h-4.597v-14.659h4.413v2.003h0.062c0.442-0.748 1.080-1.363 1.847-1.78s1.634-0.62 2.508-0.588c4.659 0 5.518 3.035 5.518 6.982l-0.002 8.042zM7.199 9.886c-0.528 0-1.043-0.155-1.482-0.445s-0.781-0.703-0.983-1.185c-0.202-0.483-0.255-1.014-0.152-1.526s0.357-0.983 0.73-1.353c0.373-0.37 0.848-0.621 1.366-0.723s1.054-0.050 1.541 0.15c0.488 0.2 0.904 0.538 1.197 0.973s0.45 0.945 0.45 1.467c0 0.347-0.069 0.69-0.203 1.011s-0.33 0.612-0.578 0.857c-0.248 0.245-0.542 0.44-0.865 0.573s-0.671 0.201-1.021 0.201zM9.497 26.55h-4.602v-14.66h4.602v14.66zM29.024 0.376h-26.439c-0.6-0.007-1.178 0.223-1.608 0.638s-0.675 0.982-0.682 1.576v26.287c0.007 0.594 0.252 1.162 0.681 1.577s1.008 0.645 1.608 0.639h26.439c0.602 0.007 1.182-0.222 1.613-0.637s0.678-0.984 0.686-1.579v-26.289c-0.009-0.595-0.256-1.163-0.686-1.578s-1.011-0.644-1.612-0.636z"></path>
</symbol>
<symbol id="icon-youtube" viewBox="0 0 46 32">
<path fill="#fff" style="fill: var(--color1, #fff)" d="M43.948 5.196c-0.501-1.873-1.969-3.349-3.831-3.853-3.401-0.936-17.006-0.936-17.006-0.936s-13.605 0-17.006 0.9c-1.826 0.504-3.33 2.017-3.831 3.889-0.895 3.421-0.895 10.515-0.895 10.515s0 7.13 0.895 10.515c0.501 1.873 1.969 3.349 3.831 3.853 3.437 0.936 17.006 0.936 17.006 0.936s13.605 0 17.006-0.9c1.862-0.504 3.33-1.981 3.831-3.853 0.895-3.421 0.895-10.515 0.895-10.515s0.036-7.13-0.895-10.551z"></path>
<path fill="#000" style="fill: var(--color18, #000)" d="M31.71 16.573l-11.951-6.923v13.846l11.951-6.923z"></path>
</symbol>
<symbol id="icon-fire" viewBox="0 0 21 32">
<path d="M5.548 31.896c-3.546-11.684 3.946-15.95 3.946-15.95-0.524 6.234 3.019 11.092 3.019 11.092 1.303-0.393 3.79-2.231 3.79-2.231 0 2.231-1.312 7.086-1.312 7.086s4.594-3.552 6.040-9.452c1.444-5.9-2.751-11.823-2.751-11.823 0.253 4.176-1.16 8.283-3.928 11.421 0.138-0.16 0.255-0.337 0.344-0.53 0.497-0.994 1.296-3.579 0.828-9.565-0.658-8.402-8.271-11.945-8.271-11.945 0.656 5.119-1.311 6.299-5.92 16.016-4.609 9.715 4.215 15.881 4.215 15.881z"></path>
</symbol>
<symbol id="icon-gift" viewBox="0 0 32 32">
<path d="M29.913 6.23h-2.329c0.307-0.486 0.51-1.032 0.568-1.609 0.185-1.845-0.787-3.499-2.441-4.232-1.52-0.674-3.229-0.398-4.459 0.717l-2.941 2.666c-0.573-0.627-1.396-1.020-2.31-1.020-0.915 0-1.74 0.395-2.313 1.023l-2.945-2.669c-1.232-1.116-2.94-1.39-4.46-0.717-1.654 0.733-2.625 2.388-2.44 4.232 0.058 0.577 0.261 1.122 0.568 1.608h-2.323c-1.153 0-2.087 0.934-2.087 2.087v3.13c0 0.576 0.467 1.043 1.044 1.043h29.913c0.576 0 1.043-0.467 1.043-1.043v-3.13c0-1.153-0.934-2.087-2.087-2.087zM12.87 5.882v0.348h-4.909c-1.297 0-2.318-1.209-1.994-2.559 0.143-0.595 0.572-1.102 1.127-1.358 0.762-0.352 1.607-0.239 2.247 0.34l3.529 3.199c-0 0.010-0.001 0.020-0.001 0.031zM26.081 4.343c-0.078 1.085-1.057 1.886-2.145 1.886h-4.806v-0.348c0-0.012-0.001-0.024-0.001-0.037 0.8-0.725 2.534-2.297 3.475-3.149 0.535-0.485 1.283-0.711 1.974-0.504 0.992 0.296 1.575 1.14 1.502 2.152z"></path>
<path d="M2.087 14.575v15.304c0 1.153 0.934 2.087 2.087 2.087h9.739v-17.391h-11.826z"></path>
<path d="M18.088 14.575v17.391h9.739c1.153 0 2.087-0.934 2.087-2.087v-15.304h-11.826z"></path>
</symbol>
<symbol id="icon-redfox" viewBox="0 0 26 32">
<path d="M0 0.029v12.676l6.221-6.221-6.221-6.455z"></path>
<path d="M19.38 6.455l6.221 6.221v-12.676l-6.221 6.455z"></path>
<path d="M0.765 13.983l11.61 17.048-5.575-23.082-6.035 6.033z"></path>
<path d="M13.18 31.032l11.61-17.048-6.035-6.033-5.575 23.082z"></path>
<path d="M17.361 7.7h-9.176l4.588 19.992 4.588-19.992z"></path>
</symbol>
<symbol id="icon-logo" viewBox="0 0 131 32">
<path fill="#cd0d0d" style="fill: var(--color3, #cd0d0d)" d="M0 0v12.807l6.285-6.285-6.285-6.522z"></path>
<path fill="#cd0d0d" style="fill: var(--color3, #cd0d0d)" d="M19.683 6.522l6.286 6.285v-12.807l-6.286 6.522z"></path>
<path fill="#cd0d0d" style="fill: var(--color3, #cd0d0d)" d="M0.877 14.127l11.732 17.226-5.633-23.321-6.099 6.095z"></path>
<path fill="#cd0d0d" style="fill: var(--color3, #cd0d0d)" d="M13.421 31.353l11.728-17.226-6.095-6.095-5.633 23.321z"></path>
<path fill="#cd0d0d" style="fill: var(--color3, #cd0d0d)" d="M17.641 7.78h-9.27l4.636 20.199 2.318-10.098 2.316-10.101z"></path>
<path fill="#fff" style="fill: var(--color1, #fff)" d="M39.955 6.949c3.695 0 5.582 1.75 5.090 5.010l-0.16 1.132c-0.298 1.944-1.292 3.283-2.722 4.027l1.761 5.319h-4.758l-1.201-4.496h-1.075l-0.687 4.496h-4.438l2.311-15.489h5.88zM38.010 10.346l-0.641 4.381h1.372c0.927 0 1.533-0.549 1.67-1.464l0.229-1.475c0.126-0.892-0.32-1.441-1.235-1.441l-1.396-0.001z"></path>
<path fill="#fff" style="fill: var(--color1, #fff)" d="M47.457 6.949h9.986l-0.526 3.58h-5.548l-0.355 2.391h5.308l-0.526 3.512h-5.308l-0.892 6.005h-4.45l2.311-15.488z"></path>
<path fill="#fff" style="fill: var(--color1, #fff)" d="M57.83 11.948c0.504-3.386 2.986-5.228 6.852-5.228 3.878 0 5.823 1.841 5.32 5.228l-0.824 5.491c-0.503 3.409-2.997 5.228-6.875 5.228s-5.8-1.819-5.296-5.228l0.824-5.491zM61.639 16.466c-0.195 1.35-0.332 2.871 1.167 2.871s1.819-1.521 2.025-2.871l0.526-3.546c0.195-1.338 0.343-2.848-1.178-2.848-1.029 0-1.682 0.641-1.819 1.636l-0.72 4.758z"></path>
<path fill="#fff" style="fill: var(--color1, #fff)" d="M76.522 11.89l2.448-4.942h4.884l-4.381 7.516 2.196 7.973h-5.044l-0.881-4.964-2.528 4.964h-5.067l4.564-7.721-2.093-7.767h4.85l1.052 4.942z"></path>
<path fill="#cd0d0d" style="fill: var(--color3, #cd0d0d)" d="M98.613 6.949l-5.674 15.489h-6.749l-1.064-15.489h4.815l0.229 11.45 3.637-11.45h4.805z"></path>
<path fill="#cd0d0d" style="fill: var(--color3, #cd0d0d)" d="M114.465 18.685h5.067l-0.56 3.752h-9.517l2.311-15.489h4.45l-1.751 11.736z"></path>
<path fill="#cd0d0d" style="fill: var(--color3, #cd0d0d)" d="M120.448 22.437h4.461l1.773-11.908-4.839 2.601-1.394 9.307z"></path>
<path fill="#cd0d0d" style="fill: var(--color3, #cd0d0d)" d="M119.236 6.949l-0.527 3.58h11.496l0.538-3.58h-11.507z"></path>
<path fill="#cd0d0d" style="fill: var(--color3, #cd0d0d)" d="M107.008 6.949h-6.291l-6.268 15.488h4.748l1.018-2.917 1.075-3.34 2.071-5.914 0.308 5.914-3.454 3.34h3.523l0.149 2.917h4.747l-1.625-15.488z"></path>
</symbol>
<symbol id="icon-down-arrow" viewBox="0 0 32 32">
<path d="M0 8.81c0-0.008 0-0.018 0-0.028 0-0.748 0.308-1.424 0.803-1.908l0.001-0.001c0.492-0.504 1.177-0.817 1.936-0.817s1.445 0.313 1.936 0.816l11.326 11.326 11.325-11.325c0.492-0.504 1.177-0.817 1.936-0.817s1.445 0.313 1.936 0.816l0.001 0.001c0.495 0.496 0.801 1.18 0.801 1.936s-0.306 1.44-0.801 1.936v0l-15.197 15.197-15.197-15.197c-0.496-0.49-0.804-1.171-0.804-1.923 0-0.005 0-0.009 0-0.013v0.001z"></path>
</symbol>
<symbol id="icon-twitter1" viewBox="0 0 39 32">
<path d="M38 4.723c-1.4 0.7-2.8 0.933-4.433 1.167 1.633-0.933 2.8-2.333 3.267-4.2-1.4 0.933-3.033 1.4-4.9 1.867-1.4-1.4-3.5-2.333-5.6-2.333-4.9 0-8.633 4.667-7.467 9.333-6.3-0.233-11.9-3.267-15.867-7.933-2.1 3.5-0.933 7.933 2.333 10.267-1.167 0-2.333-0.467-3.5-0.933 0 3.5 2.567 6.767 6.067 7.7-1.167 0.233-2.333 0.467-3.5 0.233 0.933 3.033 3.733 5.367 7.233 5.367-2.8 2.1-7 3.267-10.967 2.8 3.5 2.1 7.467 3.5 11.667 3.5 14.233 0 22.167-11.9 21.7-22.867 1.633-0.933 3.033-2.333 3.967-3.967z"></path>
</symbol>
<symbol id="icon-closed" viewBox="0 0 32 32">
<path d="M32 3.223l-3.223-3.223-12.777 12.777-12.777-12.777-3.223 3.223 12.777 12.777-12.777 12.777 3.223 3.223 12.777-12.777 12.777 12.777 3.223-3.223-12.777-12.777 12.777-12.777z"></path>
</symbol>
<symbol id="icon-detail" viewBox="0 0 32 32">
<path d="M28.444 28.444h-24.889v-24.889h12.444v-3.556h-12.444c-1.973 0-3.556 1.6-3.556 3.556v24.889c0 1.956 1.582 3.556 3.556 3.556h24.889c1.956 0 3.556-1.6 3.556-3.556v-12.444h-3.556v12.444zM19.556 0v3.556h6.382l-17.476 17.476 2.507 2.507 17.476-17.476v6.382h3.556v-12.444h-12.444z"></path>
</symbol>
<symbol id="icon-wallet" viewBox="0 0 35 32">
<path d="M33.072 26.667v1.778c0 1.956-1.654 3.555-3.675 3.555h-25.722c-2.039 0-3.675-1.6-3.675-3.555v-24.889c0-1.956 1.635-3.556 3.675-3.556h25.722c2.021 0 3.675 1.6 3.675 3.556v1.778h-16.536c-2.039 0-3.675 1.6-3.675 3.556v14.222c0 1.956 1.635 3.555 3.675 3.555h16.536zM16.536 23.111h18.373v-14.222h-18.373v14.222zM23.885 18.667c-1.525 0-2.756-1.191-2.756-2.667s1.231-2.667 2.756-2.667c1.525 0 2.756 1.191 2.756 2.667s-1.231 2.667-2.756 2.667z"></path>
</symbol>
<symbol id="icon-arrow-right" viewBox="0 0 32 32">
<path fill="#fff" style="fill: var(--color1, #fff)" d="M9.6 16c0-0.442 0.358-0.8 0.8-0.8h11.2c0.442 0 0.8 0.358 0.8 0.8s-0.358 0.8-0.8 0.8h-11.2c-0.442 0-0.8-0.358-0.8-0.8z"></path>
<path fill="#fff" style="fill: var(--color1, #fff)" d="M15.434 9.834c0.312-0.312 0.819-0.312 1.131 0l5.6 5.6c0.312 0.312 0.312 0.819 0 1.131l-5.6 5.6c-0.312 0.312-0.819 0.312-1.131 0s-0.312-0.819 0-1.131l5.034-5.034-5.034-5.034c-0.312-0.312-0.312-0.819 0-1.131z"></path>
</symbol>
<symbol id="icon-art" viewBox="0 0 32 32">
<path d="M6.4 27.2c3.535 0 6.4-2.865 6.4-6.4s-2.865-6.4-6.4-6.4c-3.535 0-6.4 2.865-6.4 6.4s2.865 6.4 6.4 6.4z"></path>
<path d="M21.6 32c2.209 0 4-1.791 4-4s-1.791-4-4-4-4 1.791-4 4c0 2.209 1.791 4 4 4z"></path>
<path d="M22.4 19.2c5.302 0 9.6-4.298 9.6-9.6s-4.298-9.6-9.6-9.6-9.6 4.298-9.6 9.6c0 5.302 4.298 9.6 9.6 9.6z"></path>
</symbol>
<symbol id="icon-description" viewBox="0 0 26 32">
<path d="M16 0h-12.8c-1.76 0-3.184 1.44-3.184 3.2l-0.016 25.6c0 1.76 1.424 3.2 3.184 3.2h19.216c1.76 0 3.2-1.44 3.2-3.2v-19.2l-9.6-9.6zM19.2 25.6h-12.8v-3.2h12.8v3.2zM19.2 19.2h-12.8v-3.2h12.8v3.2zM14.4 11.2v-8.8l8.8 8.8h-8.8z"></path>
</symbol>
<symbol id="icon-info" viewBox="0 0 32 32">
<path d="M16 0c-8.832 0-16 7.168-16 16s7.168 16 16 16c8.832 0 16-7.168 16-16s-7.168-16-16-16zM17.6 24h-3.2v-9.6h3.2v9.6zM17.6 11.2h-3.2v-3.2h3.2v3.2z"></path>
</symbol>
<symbol id="icon-wax-logo" viewBox="0 0 90 32">
<path fill="#fff" style="fill: var(--color1, #fff)" d="M80.344 5.917l-4.073 3.329 4.073 3.698 8.146-7.027h-8.146zM61.091 0h-8.516l17.031 14.794-5.554 4.438-11.107-13.684h-7.405l-13.699 16.273-5.924 7.397h7.405l15.921-19.232 4.443 5.548h-5.924l-2.962 3.698h12.218l3.702 4.438h7.405l6.294-5.178 6.294 5.178h8.886l-28.509-23.67zM31.101 5.548l-4.443 12.205-4.443-12.205h-7.405l-4.443 12.205-4.443-12.205h-5.924l6.664 18.122h7.775l4.073-11.465 4.073 11.835h7.775l6.664-18.122h-5.924v-0.37z"></path>
</symbol>
<symbol id="icon-rfox" viewBox="0 0 27 32">
<path fill="#cd0d0d" style="fill: var(--color1, #cd0d0d)" d="M0.571 0v13.072l6.362-6.415-6.362-6.656z"></path>
<path fill="#cd0d0d" style="fill: var(--color1, #cd0d0d)" d="M20.495 6.656l6.362 6.415v-13.072l-6.362 6.656z"></path>
<path fill="#cd0d0d" style="fill: var(--color1, #cd0d0d)" d="M1.459 14.419l11.875 17.581-5.702-23.802-6.173 6.221z"></path>
<path fill="#cd0d0d" style="fill: var(--color1, #cd0d0d)" d="M14.156 32l11.872-17.581-6.169-6.221-5.702 23.802z"></path>
<path fill="#cd0d0d" style="fill: var(--color1, #cd0d0d)" d="M18.428 7.94h-9.383l4.693 20.616 2.346-10.306 2.345-10.31z"></path>
</symbol>
<symbol id="icon-ethereum-logo" viewBox="0 0 21 32">
<path fill="#a5a6f6" style="fill: var(--color2, #a5a6f6)" d="M10.487 0l-9.82 16.296 9.82-4.463v-11.833z"></path>
<path fill="#a5a6f6" style="fill: var(--color2, #a5a6f6)" d="M10.487 11.832l-9.82 4.463 9.82 5.806v-10.27z"></path>
<path fill="#a5a6f6" style="fill: var(--color2, #a5a6f6)" d="M20.309 16.296l-9.822-16.296v11.833l9.822 4.463z"></path>
<path fill="#a5a6f6" style="fill: var(--color2, #a5a6f6)" d="M10.487 22.102l9.822-5.806-9.822-4.463v10.27z"></path>
<path fill="#a5a6f6" style="fill: var(--color2, #a5a6f6)" d="M0.667 18.16l9.82 13.84v-8.037l-9.82-5.803z"></path>
<path fill="#a5a6f6" style="fill: var(--color2, #a5a6f6)" d="M10.487 23.963v8.037l9.828-13.84-9.828 5.803z"></path>
</symbol>
</defs>
</svg>
