<svg width="28" height="28" viewBox="0 0 28 28" fill="none" xmlns="http://www.w3.org/2000/svg">
<g clip-path="url(#clip0_5239_62333)">
<path fill-rule="evenodd" clip-rule="evenodd" d="M8.02344 24.0695L11.6638 25.0362V23.772L11.961 23.4746H14.0412V24.9618V26.0028H11.8124L9.06353 24.8131L8.02344 24.0695Z" fill="#C0AD9E"/>
<path fill-rule="evenodd" clip-rule="evenodd" d="M19.9102 24.0695L16.3441 25.0362V23.772L16.0469 23.4746H13.9668V24.9618V26.0028H16.1955L18.9443 24.8131L19.9102 24.0695Z" fill="#C0AD9E"/>
<path fill-rule="evenodd" clip-rule="evenodd" d="M11.9612 21.3182L11.6641 23.7719L12.0355 23.4745H15.8987L16.3444 23.7719L16.0472 21.3182L15.4529 20.9463L12.4812 21.0207L11.9612 21.3182Z" fill="#161616"/>
<path fill-rule="evenodd" clip-rule="evenodd" d="M9.95508 4.73633L11.7381 8.90043L12.5554 21.021H15.4527L16.3442 8.90043L17.9787 4.73633H9.95508Z" fill="#F6851B"/>
<path fill-rule="evenodd" clip-rule="evenodd" d="M2.15441 13.8821L0.0742188 19.9051L5.27469 19.6077H8.61778V17.0052L8.4692 11.6514L7.72627 12.2462L2.15441 13.8821Z" fill="#F6851B"/>
<path fill-rule="evenodd" clip-rule="evenodd" d="M6.0918 14.5518L12.1838 14.7005L11.5152 17.8236L8.61774 17.08L6.0918 14.5518Z" fill="#CD6116"/>
<path fill-rule="evenodd" clip-rule="evenodd" d="M6.0918 14.626L8.61774 17.0055V19.385L6.0918 14.626Z" fill="#E2761B"/>
<path fill-rule="evenodd" clip-rule="evenodd" d="M8.61768 17.0801L11.5894 17.8237L12.5552 21.0212L11.8865 21.3929L8.61768 19.4596V17.0801Z" fill="#F6851B"/>
<path fill-rule="evenodd" clip-rule="evenodd" d="M8.61778 19.459L8.02344 24.0692L11.961 21.318L8.61778 19.459Z" fill="#E2761B"/>
<path fill-rule="evenodd" clip-rule="evenodd" d="M12.1838 14.7002L12.5554 21.0208L11.4409 17.7861L12.1838 14.7002Z" fill="#E2761B"/>
<path fill-rule="evenodd" clip-rule="evenodd" d="M5.2002 19.5334L8.61765 19.459L8.02331 24.0692L5.2002 19.5334Z" fill="#CD6116"/>
<path fill-rule="evenodd" clip-rule="evenodd" d="M1.70865 26.0768L8.02344 24.069L5.20033 19.5332L0.0742188 19.9049L1.70865 26.0768Z" fill="#E2761B"/>
<path fill-rule="evenodd" clip-rule="evenodd" d="M11.738 8.90039L8.54351 11.5773L6.0918 14.5517L12.1838 14.7748L11.738 8.90039Z" fill="#E2761B"/>
<path fill-rule="evenodd" clip-rule="evenodd" d="M8.02344 24.0696L11.961 21.3184L11.6638 23.6978V25.0363L8.98931 24.5157L8.02344 24.0696Z" fill="#D7C1B3"/>
<path fill-rule="evenodd" clip-rule="evenodd" d="M19.9102 24.0696L16.0469 21.3184L16.3441 23.6978V25.0363L19.0186 24.5157L19.9102 24.0696Z" fill="#D7C1B3"/>
<path fill-rule="evenodd" clip-rule="evenodd" d="M10.5494 16.0391L11.3667 17.7494L8.46923 17.0058L10.5494 16.0391Z" fill="#161616"/>
<path fill-rule="evenodd" clip-rule="evenodd" d="M1.63428 1.24121L11.7381 8.90012L10.0294 4.73602L1.63428 1.24121Z" fill="#E2761B"/>
<path fill-rule="evenodd" clip-rule="evenodd" d="M1.63414 1.24121L0.296875 5.33096L1.0398 9.79249L0.519752 10.0899L1.26268 10.7592L0.668337 11.2797L1.48555 12.0233L0.965507 12.4694L2.15419 13.9566L7.72612 12.2463C10.4502 10.0651 11.7874 8.94976 11.7379 8.90019C11.6884 8.85061 8.32046 6.29762 1.63414 1.24121Z" fill="#763D16"/>
<path fill-rule="evenodd" clip-rule="evenodd" d="M25.7792 13.8821L27.8594 19.9051L22.6589 19.6077H19.3158V17.0052L19.4644 11.6514L20.2073 12.2462L25.7792 13.8821Z" fill="#F6851B"/>
<path fill-rule="evenodd" clip-rule="evenodd" d="M21.8418 14.5518L15.7498 14.7005L16.4184 17.8236L19.3159 17.08L21.8418 14.5518Z" fill="#CD6116"/>
<path fill-rule="evenodd" clip-rule="evenodd" d="M21.8418 14.626L19.3159 17.0055V19.385L21.8418 14.626Z" fill="#E2761B"/>
<path fill-rule="evenodd" clip-rule="evenodd" d="M19.3159 17.0801L16.3442 17.8237L15.3783 21.0212L16.047 21.3929L19.3159 19.4596V17.0801Z" fill="#F6851B"/>
<path fill-rule="evenodd" clip-rule="evenodd" d="M19.3158 19.459L19.9102 24.0692L16.0469 21.3923L19.3158 19.459Z" fill="#E2761B"/>
<path fill-rule="evenodd" clip-rule="evenodd" d="M15.7497 14.7002L15.3782 21.0208L16.4927 17.7861L15.7497 14.7002Z" fill="#E2761B"/>
<path fill-rule="evenodd" clip-rule="evenodd" d="M22.7334 19.5334L19.3159 19.459L19.9103 24.0692L22.7334 19.5334Z" fill="#CD6116"/>
<path fill-rule="evenodd" clip-rule="evenodd" d="M26.2249 26.0768L19.9102 24.069L22.7333 19.5332L27.8594 19.9049L26.2249 26.0768Z" fill="#E2761B"/>
<path fill-rule="evenodd" clip-rule="evenodd" d="M16.1956 8.90039L19.3901 11.5773L21.8418 14.5517L15.7498 14.7748L16.1956 8.90039Z" fill="#E2761B"/>
<path fill-rule="evenodd" clip-rule="evenodd" d="M17.3842 16.0391L16.5669 17.7494L19.4644 17.0058L17.3842 16.0391Z" fill="#161616"/>
<path fill-rule="evenodd" clip-rule="evenodd" d="M26.2993 1.24121L16.1955 8.90012L17.9042 4.73602L26.2993 1.24121Z" fill="#E2761B"/>
<path fill-rule="evenodd" clip-rule="evenodd" d="M26.2995 1.24121L27.6367 5.33096L26.8938 9.79249L27.4138 10.0899L26.6709 10.7592L27.2653 11.2797L26.448 12.0233L26.9681 12.4694L25.7794 13.9566L20.2075 12.2463C17.4834 10.0651 16.1462 8.94976 16.1957 8.90019C16.2452 8.85061 19.6131 6.29762 26.2995 1.24121Z" fill="#763D16"/>
</g>
<defs>
<clipPath id="clip0_5239_62333">
<rect width="28" height="24.9846" fill="white" transform="translate(0 1.16699)"/>
</clipPath>
</defs>
</svg>
